<svg viewBox="0 0 512 512" xml:space="preserve" xmlns="http://www.w3.org/2000/svg" enable-background="new 0 0 512 512"><circle cx="249.804" cy="256" r="243" fill="#000000" class="fill-e44f50"></circle><path d="M493.412 129.291v333.07c0 4.95-.01 9-.01 9 0 .01-1.27 3.86-2.81 8.56l-8.1 12.49c-4.11 2.76-7.48 5.03-7.49 5.05-.01.01-4.07.03-9.02.03h-288.85c-4.95 0-6.5-3.19-3.45-7.09l8.74-11.14c3.06-3.9 5.56-11.13 5.56-16.08v-333.89c0-4.95 4.05-9 9-9h287.43c4.95 0 9 4.05 9 9z" fill="#ff9600" class="fill-fdf1c1"></path><g style="adobe-blending-mode:multiply"><path d="M248.397 218.62v-11.021h6.179v-43.193h-6.179v-11.021h19.409l16.998 40.678v-29.657h-6.013v-11.021h20.729v11.021h-6.478v54.683h-10.298l-19.931-48.352v36.862h5.813v11.021h-20.229zM302.709 218.62v-11.021h5.548v-43.193h-5.548v-11.021h40.727v20.682h-8.837v-9.661h-14.317v15.054h11.561v11.021h-11.561v17.118h14.317v-9.755h8.837v20.776h-40.727zM363.832 219.041l-13.188-54.636h-4.883v-11.021h20.828v11.021h-4.783l7.507 31.328 7.043-31.328h-4.186v-11.021h16.609v11.021h-4.285l7.573 31.328 7.275-31.328h-4.618v-11.021h18.503v11.021h-5.016l-12.756 54.636h-8.637l-7.275-29.78-6.876 29.78h-8.835zM416.417 218.62v-22.23h7.839c.089 4.064.842 7.058 2.259 8.981s3.034 2.884 4.851 2.884c1.417 0 2.612-.696 3.587-2.087s1.462-3.025 1.462-4.901c0-2-.477-3.681-1.429-5.042-.952-1.36-2.692-2.909-5.221-4.647-5.346-3.632-8.973-6.842-10.883-9.63-1.909-2.787-2.864-6.546-2.864-11.275 0-5.7 1.263-10.116 3.787-13.248s5.393-4.698 8.604-4.698c3.676 0 6.522 2.025 8.537 6.074v-5.417h7.807v19.838h-7.807c-.243-3.064-.991-5.432-2.242-7.105-1.251-1.672-2.707-2.509-4.368-2.509-1.284 0-2.37.485-3.255 1.454-.887.969-1.329 2.236-1.329 3.799 0 1.345.365 2.619 1.097 3.822.73 1.204 2.869 2.91 6.416 5.118 3.415 2.147 6.034 4.088 7.858 5.825 1.825 1.736 3.268 3.99 4.33 6.759 1.061 2.77 1.592 5.969 1.592 9.599 0 6.447-1.328 11.297-3.986 14.551-2.657 3.254-5.802 4.881-9.434 4.881-4.053 0-7.176-2.118-9.368-6.355v5.558h-7.84v.001z" style="adobe-blending-mode:normal" fill="#000000" class="fill-333333"></path></g><path d="M217.778 251.649h108.245v123.559H217.778z" fill="#000000" class="fill-676764"></path><path d="M467.663 255.458H342.006M467.663 269.633H342.006M467.663 283.808H342.006M467.663 297.983H342.006M467.663 312.158H342.006M467.663 326.333H342.006M467.663 340.508H342.006M467.663 354.683H342.006M467.663 368.858H342.006M217.778 399.055h248.918M217.778 413.23h248.918M217.778 427.405h248.918M217.778 441.58h248.918M217.778 455.755h248.918M217.778 469.93h248.918" fill="none" stroke="#000000" stroke-width="6" stroke-miterlimit="10" class="stroke-676764"></path><path d="M493.412 455.751v6.61c0 4.95-.01 9-.01 9 0 .01-1.27 3.86-2.81 8.56l-8.1 12.49c-4.11 2.76-7.48 5.03-7.49 5.05-.01.01-4.07.03-9.02.03h-288.85c-4.95 0-6.5-3.19-3.45-7.09l8.74-11.14c3.06-3.9 5.56-11.13 5.56-16.08v-7.43h305.43z" style="adobe-blending-mode:multiply" opacity=".2" enable-background="new" fill="#000000" class="fill-000000"></path><path d="M158.915 494.844c-5.701 3.151.978-1.333 2.396-2.597 2.201-1.963 4.356-3.983 6.606-5.89a67.342 67.342 0 0 1 3.959-3.135c.268-4.71.647-9.412 1.037-14.115.246-2.97.503-5.942.688-8.917.031-.498.078-1.916.122-3.168h-19.741v-229.45h-39.21v243.32c0 14.63 8.82 26.6 19.61 26.6h20.668a24.288 24.288 0 0 1 3.865-2.648z" fill="#ff9600" class="fill-ebe3c5"></path><path d="M158.915 494.844c-5.701 3.151.978-1.333 2.396-2.597 2.201-1.963 4.356-3.983 6.606-5.89a67.342 67.342 0 0 1 3.959-3.135c.268-4.71.647-9.412 1.037-14.115.246-2.97.503-5.942.688-8.917.031-.498.078-1.916.122-3.168h-19.741v-229.45h-39.21v243.32c0 14.63 8.82 26.6 19.61 26.6h20.668a24.288 24.288 0 0 1 3.865-2.648z" style="adobe-blending-mode:multiply" fill="#ff9600" enable-background="new" class="fill-ebe3c5"></path><path d="M158.915 494.844c-5.701 3.151.978-1.333 2.396-2.597 2.201-1.963 4.356-3.983 6.606-5.89a67.342 67.342 0 0 1 3.959-3.135c.268-4.71.647-9.412 1.037-14.115.246-2.97.503-5.942.688-8.917.031-.498.078-1.916.122-3.168h-19.741v-229.45h-39.21v243.32c0 14.63 8.82 26.6 19.61 26.6h20.668a24.288 24.288 0 0 1 3.865-2.648z" style="adobe-blending-mode:multiply" fill="#ff9600" enable-background="new" class="fill-ebe3c5"></path><path d="M176.662 457.021v13.87c0 14.63-8.82 26.6-19.6 26.6-10.79 0-19.61-11.97-19.61-26.6v-243.32h16.53v229.45h22.68z" style="adobe-blending-mode:multiply" opacity=".1" enable-background="new" fill="#000000" class="fill-000000"></path><path d="M188.006 470.892c0 14.627-8.823 26.595-19.607 26.595s-19.607-11.968-19.607-26.595V179.373h39.213l.001 291.519z" fill="#ff9600" class="fill-ebe3c5"></path><path d="M188.006 470.892c0 14.627-8.823 26.595-19.607 26.595s-19.607-11.968-19.607-26.595V179.373h39.213l.001 291.519z" style="adobe-blending-mode:multiply" fill="#ff9600" enable-background="new" class="fill-ebe3c5"></path><path d="M188.002 179.371v291.52c0 14.63-8.82 26.6-19.6 26.6-1.97 0-3.88-.4-5.67-1.15 8.04-3.32 13.93-13.49 13.93-25.45v-291.52h11.34z" style="adobe-blending-mode:multiply" opacity=".1" enable-background="new" fill="#000000" class="fill-000000"></path></svg>